# xmcd CD database file
#
# Track frame offsets:
#	150
#	11347
#	28138
#	39575
#	57731
#	76183
#	89933
#	104146
#	120404
#	136202
#	153609
#	171473
#	189796
#	199920
#
# Disc length: 2924 seconds
#
# Revision: 0
# Processed by: cddbd v1.5.2PL0 Copyright (c) Steve Scherf et al.
# Submitted via: CDex 1.51
#
DISCID=c40b6a0e
DTITLE=Chantz - Stories Of Me
DYEAR=2006
DGENRE=Jazz
TTITLE0=Birth of The Blues
TTITLE1=In These Shoes
TTITLE2=It Don't Mean A Thing If It Ain't Got That Swing
TTITLE3=Do Your Thing
TTITLE4=Norhing To Lose
TTITLE5=Let The Good Time Roll
TTITLE6=Uptight (Everything's Alright)
TTITLE7=Work Song
TTITLE8=When Strangers Smile
TTITLE9=Mack The Knife
TTITLE10=Grazin In The Grass
TTITLE11=Lean On Me
TTITLE12=They All Laugh
TTITLE13=Stories Of Me
EXTD=YEAR: 2006
EXTT0=
EXTT1=
EXTT2=
EXTT3=
EXTT4=
EXTT5=
EXTT6=
EXTT7=
EXTT8=
EXTT9=
EXTT10=
EXTT11=
EXTT12=
EXTT13=
PLAYORDER=
